<svg width="177" height="52" viewBox="0 0 177 52" fill="none" xmlns="http://www.w3.org/2000/svg">
<g clip-path="url(#clip0_0_1)">
<path d="M7.79073 23.3826L10.4447 22.0738L14.6397 15.7919L15.9239 15.2685L17.2937 21.6376L15.4958 21.8993L14.126 19.2819L13.0987 23.3826H17.6361L22.3448 24.604L24.2283 23.3826L27.396 26.698L28.7658 20.5906L30.9917 22.8591L32.3615 20.9396L34.5874 20.3289L37.8407 17.2752L38.3543 15.7919L41.0083 16.2282L42.1213 17.7114L40.1522 21.8993L45.0321 19.3691V18.1476L46.9156 17.7114L48.9703 19.8054L51.025 17.2752V15.5302L54.3639 13.1745L55.7337 11.1678H57.874L61.6409 3.40268L64.8942 0L66.0927 1.91946L64.2093 4.36242L64.8942 5.93289L66.692 6.28188L68.1474 12.7383V18.1476L70.7158 21.7248L72 26.698L67.5482 23.8188L65.5791 15.5302L64.3805 15.7919L64.2093 21.3758L60.956 26.698L60.0143 34.8121L62.2402 35.3356L63.1819 34.2013L65.3222 36.6443L66.9489 43.9732L66.7776 48.6846H64.723L63.9524 42.0537L62.497 44.0604L59.3294 43.3624L56.761 41.1812L53.8502 42.2282L54.0214 46.9396L51.7099 47.5503L48.2854 50.1678L44.176 49.6443L42.5494 48.6846L39.981 49.1208L40.8371 50.1678L38.7824 51.3893L37.1558 50.604L34.0737 52L29.365 49.6443L27.5672 45.4564L26.0262 45.6309L24.2283 44.1477L24.1427 43.0134L18.4067 42.4027L17.4649 45.5436L13.8692 43.8859L12.0713 40.8322H8.21879L7.79073 45.7181L5.5648 46.4161L4.45184 50.8658L3.59572 50.0805L0 40.745L4.28062 38.651L3.59572 34.5503L2.91082 30.3624L4.79429 27.6577L4.19501 26L6.76338 23.2081L7.79073 23.3826ZM64.723 33.6779L68.6611 39.6107L69.9453 39.0872L68.3187 36.6443L64.723 32.8054V33.6779ZM24.4851 21.6376V19.8926L27.4816 17.7114L30.0499 16.4027H27.0535L24.3995 17.9732L22.7729 19.4564V21.6376H24.4851Z" fill="white"/>
<path d="M91.321 41V23.5455H98.5312C99.8381 23.5455 100.966 23.7812 101.915 24.2528C102.869 24.7187 103.605 25.3892 104.122 26.2642C104.639 27.1335 104.898 28.1648 104.898 29.358C104.898 30.5682 104.634 31.5966 104.105 32.4432C103.577 33.2841 102.827 33.9261 101.855 34.3693C100.884 34.8068 99.733 35.0256 98.4034 35.0256H93.8438V31.7017H97.6193C98.2557 31.7017 98.7869 31.6193 99.2131 31.4545C99.6449 31.2841 99.9716 31.0284 100.193 30.6875C100.415 30.3409 100.526 29.8977 100.526 29.358C100.526 28.8182 100.415 28.3722 100.193 28.0199C99.9716 27.6619 99.6449 27.3949 99.2131 27.2188C98.7813 27.0369 98.25 26.946 97.6193 26.946H95.5398V41H91.321ZM101.148 33.0227L105.494 41H100.892L96.6307 33.0227H101.148ZM115.658 35.3494V27.9091H119.817V41H115.845V38.5625H115.709C115.419 39.3636 114.925 40 114.226 40.4716C113.533 40.9375 112.695 41.1705 111.712 41.1705C110.82 41.1705 110.036 40.9659 109.359 40.5568C108.683 40.1477 108.158 39.5767 107.783 38.8438C107.408 38.1051 107.217 37.2415 107.212 36.2528V27.9091H111.379V35.4347C111.385 36.1449 111.572 36.7045 111.942 37.1136C112.311 37.5227 112.814 37.7273 113.45 37.7273C113.865 37.7273 114.237 37.6364 114.567 37.4545C114.902 37.267 115.166 36.9972 115.359 36.6449C115.558 36.2869 115.658 35.8551 115.658 35.3494ZM133.898 31.9062L130.072 32.0085C130.032 31.7358 129.924 31.4943 129.748 31.2841C129.572 31.0682 129.342 30.9006 129.058 30.7812C128.779 30.6562 128.455 30.5938 128.086 30.5938C127.603 30.5938 127.191 30.6903 126.85 30.8835C126.515 31.0767 126.35 31.3381 126.356 31.6676C126.35 31.9233 126.452 32.1449 126.663 32.3324C126.879 32.5199 127.262 32.6705 127.813 32.7841L130.336 33.2614C131.643 33.5114 132.614 33.9261 133.251 34.5057C133.893 35.0852 134.217 35.8523 134.222 36.8068C134.217 37.7045 133.95 38.4858 133.421 39.1506C132.898 39.8153 132.183 40.3324 131.273 40.7017C130.364 41.0653 129.325 41.2472 128.154 41.2472C126.285 41.2472 124.81 40.8636 123.731 40.0966C122.657 39.3239 122.043 38.2898 121.89 36.9943L126.006 36.892C126.097 37.3693 126.333 37.733 126.714 37.983C127.094 38.233 127.58 38.358 128.171 38.358C128.705 38.358 129.14 38.2585 129.475 38.0597C129.81 37.8608 129.981 37.5966 129.987 37.267C129.981 36.9716 129.85 36.7358 129.594 36.5597C129.339 36.3778 128.938 36.2358 128.393 36.1335L126.109 35.6989C124.796 35.4602 123.819 35.0199 123.177 34.3778C122.535 33.7301 122.217 32.9062 122.222 31.9062C122.217 31.0312 122.45 30.2841 122.921 29.6648C123.393 29.0398 124.063 28.5625 124.933 28.233C125.802 27.9034 126.827 27.7386 128.009 27.7386C129.782 27.7386 131.18 28.1108 132.202 28.8551C133.225 29.5937 133.79 30.6108 133.898 31.9062ZM147.703 31.9062L143.876 32.0085C143.837 31.7358 143.729 31.4943 143.553 31.2841C143.376 31.0682 143.146 30.9006 142.862 30.7812C142.584 30.6562 142.26 30.5938 141.891 30.5938C141.408 30.5938 140.996 30.6903 140.655 30.8835C140.32 31.0767 140.155 31.3381 140.161 31.6676C140.155 31.9233 140.257 32.1449 140.467 32.3324C140.683 32.5199 141.067 32.6705 141.618 32.7841L144.141 33.2614C145.447 33.5114 146.419 33.9261 147.055 34.5057C147.697 35.0852 148.021 35.8523 148.027 36.8068C148.021 37.7045 147.754 38.4858 147.226 39.1506C146.703 39.8153 145.987 40.3324 145.078 40.7017C144.169 41.0653 143.129 41.2472 141.959 41.2472C140.089 41.2472 138.615 40.8636 137.536 40.0966C136.462 39.3239 135.848 38.2898 135.695 36.9943L139.811 36.892C139.902 37.3693 140.138 37.733 140.518 37.983C140.899 38.233 141.385 38.358 141.976 38.358C142.51 38.358 142.945 38.2585 143.28 38.0597C143.615 37.8608 143.786 37.5966 143.791 37.267C143.786 36.9716 143.655 36.7358 143.399 36.5597C143.143 36.3778 142.743 36.2358 142.197 36.1335L139.913 35.6989C138.601 35.4602 137.624 35.0199 136.982 34.3778C136.339 33.7301 136.021 32.9062 136.027 31.9062C136.021 31.0312 136.254 30.2841 136.726 29.6648C137.197 29.0398 137.868 28.5625 138.737 28.233C139.607 27.9034 140.632 27.7386 141.814 27.7386C143.587 27.7386 144.984 28.1108 146.007 28.8551C147.03 29.5937 147.595 30.6108 147.703 31.9062ZM150.079 41V27.9091H154.246V41H150.079ZM152.167 26.3835C151.582 26.3835 151.079 26.1903 150.658 25.804C150.238 25.4119 150.028 24.9403 150.028 24.3892C150.028 23.8437 150.238 23.3778 150.658 22.9915C151.079 22.5994 151.582 22.4034 152.167 22.4034C152.758 22.4034 153.261 22.5994 153.675 22.9915C154.096 23.3778 154.306 23.8437 154.306 24.3892C154.306 24.9403 154.096 25.4119 153.675 25.804C153.261 26.1903 152.758 26.3835 152.167 26.3835ZM160.589 41.2216C159.754 41.2216 159.013 41.0824 158.365 40.804C157.723 40.5199 157.214 40.0937 156.839 39.5256C156.47 38.9517 156.286 38.233 156.286 37.3693C156.286 36.642 156.413 36.0284 156.669 35.5284C156.925 35.0284 157.277 34.6222 157.726 34.3097C158.175 33.9972 158.692 33.7614 159.277 33.6023C159.862 33.4375 160.487 33.3267 161.152 33.2699C161.896 33.2017 162.496 33.1307 162.95 33.0568C163.405 32.9773 163.734 32.8665 163.939 32.7244C164.149 32.5767 164.254 32.3693 164.254 32.1023V32.0597C164.254 31.6222 164.104 31.2841 163.803 31.0455C163.501 30.8068 163.095 30.6875 162.584 30.6875C162.033 30.6875 161.589 30.8068 161.254 31.0455C160.919 31.2841 160.706 31.6136 160.615 32.0341L156.771 31.8977C156.885 31.1023 157.178 30.392 157.649 29.767C158.126 29.1364 158.78 28.642 159.609 28.2841C160.445 27.9205 161.447 27.7386 162.618 27.7386C163.453 27.7386 164.223 27.8381 164.928 28.0369C165.632 28.2301 166.246 28.5142 166.768 28.8892C167.291 29.2585 167.695 29.7131 167.979 30.2528C168.268 30.7926 168.413 31.4091 168.413 32.1023V41H164.493V39.1761H164.391C164.158 39.6193 163.859 39.9943 163.496 40.3011C163.138 40.608 162.714 40.8381 162.226 40.9915C161.743 41.1449 161.197 41.2216 160.589 41.2216ZM161.876 38.4943C162.325 38.4943 162.729 38.4034 163.087 38.2216C163.45 38.0398 163.74 37.7898 163.956 37.4716C164.172 37.1477 164.28 36.7727 164.28 36.3466V35.1023C164.161 35.1648 164.016 35.2216 163.845 35.2727C163.68 35.3239 163.499 35.3722 163.3 35.4176C163.101 35.4631 162.896 35.5028 162.686 35.5369C162.476 35.571 162.274 35.6023 162.081 35.6307C161.689 35.6932 161.354 35.7898 161.075 35.9205C160.803 36.0511 160.592 36.2216 160.445 36.4318C160.303 36.6364 160.232 36.8807 160.232 37.1648C160.232 37.5966 160.385 37.9261 160.692 38.1534C161.004 38.3807 161.399 38.4943 161.876 38.4943Z" fill="white"/>
</g>
<defs>
<clipPath id="clip0_0_1">
<rect width="177" height="52" fill="white"/>
</clipPath>
</defs>
</svg>
